<?xml version="1.0" encoding="UTF-8"?>
<svg width="1000px" height="1000px" viewBox="0 0 1000 1000" version="1.1" xmlns="http://www.w3.org/2000/svg" xmlns:xlink="http://www.w3.org/1999/xlink">
    <!-- Generator: Sketch 54.1 (76490) - https://sketchapp.com -->
    <title>SB_masked_shadow Copy 10</title>
    <desc>Created with Sketch.</desc>
    <defs>
        <path d="M500,250 C500,111.928813 388.071187,0 250,0 C111.928813,0 0,111.928813 0,250 C0,412.5 0,412.5 0,575 C0,713.071187 111.928813,825 250,825 C388.071187,825 500,713.071187 500,575" id="path-1"></path>
    </defs>
    <g id="SB_masked_shadow-Copy-10" stroke="none" stroke-width="1" fill="none" fill-rule="evenodd">
        <path d="M513,500 L650,500 C732.842712,500 800,567.157288 800,650 C800,732.842712 732.842712,800 650,800 C567.157288,800 500,732.842712 500,650 L500,350 C500,267.157288 567.157288,200 650,200 C732.842712,200 800,267.157288 800,350 C800,432.842712 732.842712,500 650,500 L550,500" id="B" stroke="#0056FF" stroke-width="100"></path>
        <g id="Mask" transform="translate(100.000000, 101.000000)">
            <mask id="mask-2" fill="white">
                <use xlink:href="#path-1"></use>
            </mask>
            <g></g>
            <path d="M515.138782,399 L550,399 C632.842712,399 700,331.842712 700,249 C700,166.157288 632.842712,99 550,99 C467.157288,99 400,166.157288 400,249 C400,284.133422 400,290.781674 400,322.240812 L515.138782,399 Z" stroke-opacity="0.379097465" stroke="#000000" stroke-width="100" mask="url(#mask-2)"></path>
            <path d="M400,699 L550,699 C632.842712,699 700,631.842712 700,549 C700,466.157288 632.842712,399 550,399 C467.157288,399 400,466.157288 400,549 C400,634 400,634 400,699 Z" stroke-opacity="0.379097465" stroke="#000000" stroke-width="100" mask="url(#mask-2)" transform="translate(550.000000, 549.000000) scale(1, -1) translate(-550.000000, -549.000000) "></path>
        </g>
        <path d="M200,650 C200,732.842712 267.157288,800 350,800 C432.842712,800 500,732.842712 500,650 C500,567.157288 432.842712,500 350,500 C267.157288,500 200,432.842712 200,350 C200,267.157288 267.157288,200 350,200 C432.842712,200 500,267.157288 500,350" id="S" stroke="#0056FF" stroke-width="100"></path>
    </g>
</svg>